<svg width="40" height="40" viewBox="0 0 40 40" fill="none" xmlns="http://www.w3.org/2000/svg">
  <circle cx="20" cy="20" r="18" fill="#FFC133" stroke="#374151" stroke-width="4"/>
  <path d="M28.7598 15.8165C29.1567 15.3792 29.8442 15.3787 30.2411 15.8161L32.7463 18.5782C33.3292 19.2207 32.8735 20.2498 32.0061 20.2502L30.9842 20.2494C31.001 21.225 30.8841 22.2192 30.6189 23.2088C29.0864 28.9277 23.2078 32.3218 17.4888 30.7894C15.3835 30.2252 13.5949 29.0701 12.2496 27.5526L14.7142 24.9121C15.625 25.9944 16.8639 26.8194 18.3337 27.2134C22.1521 28.2363 26.0763 25.9707 27.0995 22.1525C27.27 21.5164 27.349 20.8776 27.3445 20.2497L26.9946 20.25C26.1271 20.25 25.6709 19.221 26.2536 18.5784L28.7598 15.8165ZM23.0382 10.0786C24.7326 10.5327 26.2217 11.3705 27.4403 12.4704L25.1853 15.1772C24.3359 14.3467 23.2681 13.7152 22.0389 13.3858C18.2206 12.3631 14.295 14.6291 13.2719 18.4474C13.1227 19.0043 13.0455 19.5637 13.0311 20.1158L13.2087 20.1169C14.0542 20.1169 14.5184 21.101 13.9805 21.7532L11.7715 24.4319C11.3715 24.9166 10.6286 24.9166 10.2286 24.432L8.01949 21.7534C7.4816 21.1012 7.94534 20.1172 8.7906 20.1169L9.54604 20.1161C9.57066 19.3028 9.68839 18.4794 9.90811 17.6593C11.4405 11.9405 17.3194 8.54668 23.0382 10.0786Z" fill="#374151"/>
</svg>
